<?xml version="1.0" encoding="UTF-8" standalone="no"?><!DOCTYPE svg PUBLIC "-//W3C//DTD SVG 1.1//EN" "http://www.w3.org/Graphics/SVG/1.1/DTD/svg11.dtd"><svg width="100%" height="100%" viewBox="0 0 460 460" version="1.1" xmlns="http://www.w3.org/2000/svg" xmlns:xlink="http://www.w3.org/1999/xlink" xml:space="preserve" xmlns:serif="http://www.serif.com/" style="fill-rule:evenodd;clip-rule:evenodd;stroke-linejoin:round;stroke-miterlimit:2;"><circle cx="229.735" cy="229.735" r="183.477" style="fill:#3865ab;"/><path d="M229.735,-0c126.794,-0 229.735,102.941 229.735,229.735c0,126.794 -102.941,229.735 -229.735,229.735c-126.794,0 -229.735,-102.941 -229.735,-229.735c-0,-126.794 102.941,-229.735 229.735,-229.735Zm0,22.974c114.115,-0 206.762,92.646 206.762,206.761c-0,114.115 -92.647,206.762 -206.762,206.762c-114.115,-0 -206.761,-92.647 -206.761,-206.762c-0,-114.115 92.646,-206.761 206.761,-206.761Z" style="fill:#84aff1;"/><path d="M257.412,121.205c4.1,4.342 6.15,12.784 6.15,25.325l0,1.448c0,5.788 -0.181,10.069 -0.543,12.843c-0.361,2.774 -1.628,6.09 -3.798,9.949c-3.618,6.995 -12.723,10.492 -27.315,10.492c-14.592,-0 -24.24,-2.291 -28.943,-6.874c-4.703,-4.583 -7.055,-13.266 -7.055,-26.049l0,-1.447c0,-5.547 0.181,-9.768 0.543,-12.662c0.362,-2.895 1.507,-6.271 3.437,-10.13c3.618,-6.995 12.723,-10.492 27.315,-10.492c14.592,-0 24.661,2.532 30.209,7.597Zm-0,115.41c4.1,4.1 6.15,12.542 6.15,25.325l0,1.447c0,26.531 -6.994,49.203 -20.984,68.016c-11.335,15.195 -24.601,22.792 -39.796,22.792c-1.688,0 -3.196,-1.266 -4.522,-3.798c-1.327,-2.533 -1.99,-5.849 -1.99,-9.949c-0,-4.101 0.543,-7.296 1.628,-9.588c1.085,-2.291 2.472,-3.738 4.16,-4.341c1.689,-0.603 3.377,-1.568 5.065,-2.894c1.689,-1.327 4.161,-4.583 7.417,-9.769c3.256,-5.185 5.125,-11.034 5.608,-17.546c-7.96,-0.965 -13.989,-3.437 -18.09,-7.417c-4.1,-3.979 -6.15,-12.361 -6.15,-25.144l0,-1.447c0,-5.547 0.181,-9.768 0.543,-12.663c0.362,-2.894 1.507,-6.15 3.437,-9.768c3.618,-7.236 12.723,-10.853 27.315,-10.853c14.592,-0 24.661,2.532 30.209,7.597Z" style="fill:url(#_Linear1);fill-rule:nonzero;"/><defs><linearGradient id="_Linear1" x1="0" y1="0" x2="1" y2="0" gradientUnits="userSpaceOnUse" gradientTransform="matrix(1.38182e-14,260.088,-225.669,1.59258e-14,299.698,88.1174)"><stop offset="0" style="stop-color:#f2cc0c;stop-opacity:1"/><stop offset="1" style="stop-color:#ff9830;stop-opacity:1"/></linearGradient></defs></svg>