<?xml version="1.0" encoding="UTF-8" standalone="no"?>
<!DOCTYPE svg PUBLIC "-//W3C//DTD SVG 1.1//EN" "http://www.w3.org/Graphics/SVG/1.1/DTD/svg11.dtd">
<svg width="100%" height="100%" viewBox="0 0 81 81" version="1.1" xmlns="http://www.w3.org/2000/svg" xmlns:xlink="http://www.w3.org/1999/xlink" xml:space="preserve" xmlns:serif="http://www.serif.com/" style="fill-rule:evenodd;clip-rule:evenodd;stroke-linejoin:round;stroke-miterlimit:2;">
    <g transform="matrix(1,0,0,1,-503.428,-309.489)">
        <g transform="matrix(0.278859,0,0,0.278859,446.755,253.978)">
            <circle cx="348.286" cy="344.121" r="115.848" style="fill:rgb(56,101,171);"/>
        </g>
        <g transform="matrix(0.824804,0,0,0.824804,85.1357,240.648)">
            <path d="M556.184,83.464C583.251,83.464 605.226,105.439 605.226,132.506C605.226,159.573 583.251,181.548 556.184,181.548C529.117,181.548 507.142,159.573 507.142,132.506C507.142,105.439 529.117,83.464 556.184,83.464ZM556.184,88.368C580.544,88.368 600.322,108.145 600.322,132.506C600.322,156.866 580.544,176.643 556.184,176.643C531.823,176.643 512.046,156.866 512.046,132.506C512.046,108.145 531.823,88.368 556.184,88.368Z" style="fill:rgb(132,175,241);"/>
        </g>
        <g transform="matrix(1,0,0,1,232.42,31.8526)">
            <path d="M316.856,299.044C317.582,299.812 317.944,301.306 317.944,303.524L317.944,303.78C317.944,304.804 317.912,305.562 317.848,306.052C317.784,306.543 317.56,307.13 317.176,307.812C316.536,309.05 314.926,309.668 312.344,309.668C309.763,309.668 308.056,309.263 307.224,308.452C306.392,307.642 305.976,306.106 305.976,303.844L305.976,303.588C305.976,302.607 306.008,301.86 306.072,301.348C306.136,300.836 306.339,300.239 306.68,299.556C307.32,298.319 308.931,297.7 311.512,297.7C314.094,297.7 315.875,298.148 316.856,299.044ZM316.856,319.46C317.582,320.186 317.944,321.679 317.944,323.94L317.944,324.196C317.944,328.89 316.707,332.9 314.232,336.228C312.227,338.916 309.88,340.26 307.192,340.26C306.894,340.26 306.627,340.036 306.392,339.588C306.158,339.14 306.04,338.554 306.04,337.828C306.04,337.103 306.136,336.538 306.328,336.132C306.52,335.727 306.766,335.471 307.064,335.364C307.363,335.258 307.662,335.087 307.96,334.852C308.259,334.618 308.696,334.042 309.272,333.124C309.848,332.207 310.179,331.172 310.264,330.02C308.856,329.85 307.79,329.412 307.064,328.708C306.339,328.004 305.976,326.522 305.976,324.26L305.976,324.004C305.976,323.023 306.008,322.276 306.072,321.764C306.136,321.252 306.339,320.676 306.68,320.036C307.32,318.756 308.931,318.116 311.512,318.116C314.094,318.116 315.875,318.564 316.856,319.46Z" style="fill:url(#_Linear1);fill-rule:nonzero;"/>
        </g>
    </g>
    <defs>
        <linearGradient id="_Linear1" x1="0" y1="0" x2="1" y2="0" gradientUnits="userSpaceOnUse" gradientTransform="matrix(3.72629e-15,60.8549,-54.4067,3.33145e-15,334.479,277.32)"><stop offset="0" style="stop-color:rgb(242,204,12);stop-opacity:1"/><stop offset="1" style="stop-color:rgb(255,152,48);stop-opacity:1"/></linearGradient>
    </defs>
</svg>
